Coordinates
version=1
nRows=19
nColumns=24
inDegrees=yes

Units are S.I. units (second, meters, Newtons, ...)
Angles are in degrees.

endheader
time	pelvis_tilt	pelvis_list	pelvis_rotation	pelvis_tx	pelvis_ty	pelvis_tz	hip_flexion_r	hip_adduction_r	hip_rotation_r	knee_angle_r	ankle_angle_r	subtalar_angle_r	mtp_angle_r	hip_flexion_l	hip_adduction_l	hip_rotation_l	knee_angle_l	ankle_angle_l	subtalar_angle_l	mtp_angle_l	lumbar_extension	lumbar_bending	lumbar_rotation
      1.02466667	     -4.19094153	      0.85876089	     -3.11051241	     -0.01544081	      0.87723589	      0.32484227	    -14.75742514	      2.48374461	     -1.90712780	     -7.35554224	     21.98341687	     11.14398697	      8.80114502	     30.54779504	     -0.33131793	     -8.62128121	     -4.11510020	      5.48974210	     -2.86318928	      0.38898343	     -2.13928646	     -0.15847838	      9.29704189
      1.02883333	     -4.18912107	      0.94731719	     -3.19055109	     -0.00961533	      0.87600883	      0.32463093	    -14.91252753	      2.30505355	     -1.87770912	     -7.89183522	     22.19547148	     11.28206025	      8.94019145	     30.73333800	     -0.24560575	     -8.29075758	     -4.74251097	      5.40020288	     -2.81294241	      0.42543058	     -2.12523583	     -0.33724358	      9.37957568
      1.03300000	     -4.19797210	      1.04995166	     -3.26079224	     -0.00376598	      0.87480459	      0.32438498	    -15.04096776	      2.11038585	     -1.87019997	     -8.45853911	     22.36170630	     11.45799703	      9.10169975	     30.93988158	     -0.13882381	     -7.97500113	     -5.46160913	      5.25068987	     -2.80080559	      0.47646765	     -2.10628035	     -0.53142598	      9.45165866
      1.03716667	     -4.19705671	      1.16707718	     -3.32586830	      0.00213862	      0.87366458	      0.32410512	    -15.16594395	      1.89280663	     -1.91237356	     -9.05437055	     22.49310778	     11.72385094	      9.38484969	     31.14059140	     -0.01132961	     -7.71283228	     -6.26106979	      5.02990608	     -2.84227490	      0.57640587	     -2.07574716	     -0.73351782	      9.51839804
      1.04133333	     -4.17861291	      1.29516004	     -3.36446885	      0.00807185	      0.87258549	      0.32380049	    -15.30503404	      1.67580840	     -1.92396459	     -9.66972518	     22.59279336	     11.81142388	      9.59433590	     31.31162679	      0.14740491	     -7.39290319	     -7.09325344	      4.81622274	     -2.90172164	      0.65594355	     -2.08243924	     -0.96963353	      9.54290159
      1.04550000	     -4.16768337	      1.43564200	     -3.39717016	      0.01404602	      0.87154505	      0.32345499	    -15.41140261	      1.43767669	     -2.00285828	    -10.33492575	     22.65115318	     12.02643426	      9.88528794	     31.49968535	      0.32454442	     -7.12586400	     -7.99548790	      4.51499971	     -3.03287222	      0.76777482	     -2.05812664	     -1.21015594	      9.56028354
      1.04966667	     -4.09112722	      1.61009349	     -3.43561078	      0.02010360	      0.87067527	      0.32311100	    -15.60261887	      1.15874702	     -2.05096823	    -10.96176785	     22.55786695	     12.12993953	     13.56007691	     31.58327662	      0.54617575	     -6.88621738	     -8.87350825	      4.09880069	     -3.34481000	      2.25103477	     -2.11350203	     -1.50294204	      9.54860849
      1.05383333	     -4.08178296	      1.73682917	     -3.40963291	      0.02614840	      0.86972092	      0.32268800	    -15.70620813	      0.95492514	     -2.13839149	    -11.63618319	     22.46188681	     12.24124365	     13.61314483	     31.80034792	      0.73810492	     -6.63577728	     -9.91213697	      3.79237523	     -3.43013667	      2.27354949	     -2.08268535	     -1.72700081	      9.54368656
      1.05800000	     -4.05034056	      1.90730028	     -3.40956355	      0.03224941	      0.86887199	      0.32226877	    -15.79763238	      0.68850129	     -2.23773605	    -12.38355194	     22.39171483	     12.41009116	     13.73720332	     31.96095996	      0.97245321	     -6.43487417	    -10.91929631	      3.39215604	     -3.68211604	      2.31316853	     -2.06655018	     -2.01323806	      9.49900404
      1.06216667	     -4.01626687	      2.07876697	     -3.38086877	      0.03839214	      0.86807991	      0.32179296	    -15.88229966	      0.42603841	     -2.36308093	    -13.15395685	     22.22742125	     12.54035766	     13.90953122	     32.11599955	      1.22690391	     -6.21916706	    -11.94341101	      2.97665399	     -3.98743491	      2.36071142	     -2.05545755	     -2.29661749	      9.44841511
      1.06633333	     -3.98067618	      2.25917386	     -3.34794754	      0.04456852	      0.86736061	      0.32131144	    -15.94851837	      0.15508158	     -2.48373495	    -13.96112623	     22.01037089	     12.65439014	     14.13629907	     32.26090125	      1.49501003	     -6.01775878	    -12.97406197	      2.54746614	     -4.33144125	      2.41399598	     -2.03987692	     -2.59239717	      9.37711541
      1.07050000	     -3.94438299	      2.44496769	     -3.29767280	      0.05078131	      0.86670437	      0.32079057	    -15.99623356	     -0.12008141	     -2.62607416	    -14.80866637	     21.73746042	     12.77059623	     14.44658411	     32.39973539	      1.78052382	     -5.82101702	    -14.01125666	      2.11681530	     -4.72472720	      2.47672568	     -2.02023803	     -2.89581735	      9.28530549
      1.07466667	     -3.83726825	      2.60914883	     -3.23532230	      0.05704315	      0.86621977	      0.32029157	    -16.13427095	     -0.35933305	     -2.71565911	    -15.62414521	     21.36845740	     12.69236863	     14.54520478	     32.48016564	      2.03573130	     -5.73423554	    -15.11794658	      1.79055858	     -4.94987955	      2.49087903	     -2.09355794	     -3.15994955	      9.26028426
      1.07883333	     -3.81617282	      2.83471118	     -3.18446738	      0.06331969	      0.86570217	      0.31971761	    -16.09284486	     -0.69109166	     -2.89434651	    -16.59721300	     20.91934614	     12.82175493	     20.10387556	     32.58032996	      2.37880016	     -5.50853815	    -16.06438059	      1.27967771	     -5.58108036	      3.35286183	     -2.05338779	     -3.52030839	      9.14337585
      1.08300000	     -3.79576863	      3.00512416	     -3.07711364	      0.06962062	      0.86522269	      0.31912319	    -16.06127454	     -0.93411137	     -3.05950136	    -17.55950076	     20.39509719	     12.84266661	     20.15358375	     32.73500659	      2.66601070	     -5.35345603	    -17.15392156	      1.01622984	     -5.83304293	      3.35371445	     -2.00533639	     -3.81259390	      9.02800086
      1.08716667	     -3.77574081	      3.20099568	     -2.99487946	      0.07593503	      0.86483378	      0.31853021	    -15.97370740	     -1.21981904	     -3.21230948	    -18.62347363	     19.88552775	     12.88464354	     20.27930435	     32.85288012	      2.97520740	     -5.21268153	    -18.17631584	      0.72106405	     -6.21633907	      3.35001680	     -1.95814325	     -4.12731731	      8.88840362
      1.09133333	     -3.71303673	      3.41278770	     -2.90697057	      0.08226212	      0.86459238	      0.31788636	    -15.89387943	     -1.53669141	     -3.41523328	    -19.74768816	     19.28319108	     12.92691735	     23.49583896	     32.88968203	      3.31718248	     -5.04322015	    -19.13264908	      0.42743246	     -6.68411594	      3.27000919	     -1.97645403	     -4.44149484	      8.77930781
      1.09550000	     -3.67920955	      3.60229533	     -2.79872486	      0.08863745	      0.86437348	      0.31726547	    -15.77801746	     -1.81206897	     -3.56842866	    -20.87551662	     18.58474576	     12.89610039	     23.53291852	     32.97046661	      3.62519864	     -4.93326684	    -20.14449230	      0.31324502	     -6.93251055	      3.26376009	     -1.93704952	     -4.76250615	      8.67297408
      1.09966667	     -3.65741404	      3.80331944	     -2.69914139	      0.09498642	      0.86422104	      0.31662178	    -15.58352839	     -2.11489611	     -3.73918081	    -22.11831718	     17.87389288	     12.91029662	     23.63097655	     33.03148309	      3.94826383	     -4.80587875	    -21.09059160	      0.19502889	     -7.24930259	      3.24961869	     -1.88897914	     -5.08192268	      8.53675387
